<svg width="24" height="27" viewBox="0 0 24 27" fill="none" xmlns="http://www.w3.org/2000/svg">
<path d="M23.293 10.3896L21.3197 8.40833L13.7519 0.831622C13.2092 0.296077 12.5067 0 11.7786 0C11.0505 0 10.3479 0.296077 9.80526 0.831622L2.25726 8.45188L0.283926 10.4331C0.151047 10.5819 0.0597596 10.7697 0.0209538 10.9741C-0.0178521 11.1785 -0.00253789 11.391 0.0650692 11.5861C0.132676 11.7811 0.249722 11.9507 0.402244 12.0744C0.554766 12.1981 0.736324 12.2708 0.925259 12.2838C1.17517 12.2713 1.41146 12.1546 1.58633 11.9572L1.91193 11.6306V22.8433C1.91193 23.7094 2.22378 24.5401 2.77889 25.1526C3.334 25.765 4.08688 26.1091 4.87193 26.1091H18.6853C19.4703 26.1091 20.2232 25.765 20.7783 25.1526C21.3334 24.5401 21.6453 23.7094 21.6453 22.8433V11.6742L21.9709 12.0007C22.1518 12.1822 22.3874 12.2831 22.6319 12.2838C22.8309 12.2832 23.025 12.2163 23.1888 12.0918C23.3527 11.9674 23.4786 11.7912 23.5501 11.5864C23.6216 11.3815 23.6353 11.1576 23.5894 10.9441C23.5435 10.7305 23.4402 10.5372 23.293 10.3896Z" fill="#7B4CC3"/>
</svg>
