<svg width="24" height="27" viewBox="0 0 24 27" fill="none" xmlns="http://www.w3.org/2000/svg">
<path d="M23.6349 11.9747H12.7816V0C15.5849 0.248603 18.2165 1.59005 20.2052 3.78416C22.1938 5.97826 23.4096 8.88173 23.6349 11.9747Z" fill="#C6C6C6"/>
<path d="M23.635 14.1519C23.4386 16.6291 22.6054 18.993 21.2334 20.9659C19.8614 22.9387 18.0075 24.4385 15.8896 25.289C13.7717 26.1396 11.4778 26.3055 9.27741 25.7673C7.07701 25.2291 5.06155 24.0091 3.46786 22.2507C1.87416 20.4924 0.768452 18.2687 0.280646 15.841C-0.207161 13.4132 -0.0567929 10.8823 0.71408 8.54558C1.48495 6.20887 2.8443 4.16345 4.6324 2.64969C6.4205 1.13592 8.56305 0.216682 10.8083 0V13.0633C10.8083 13.352 10.9123 13.6289 11.0973 13.8331C11.2823 14.0372 11.5333 14.1519 11.795 14.1519H23.635Z" fill="#C6C6C6"/>
</svg>
