<svg width="28" height="28" viewBox="0 0 28 28" fill="none" xmlns="http://www.w3.org/2000/svg">
<path d="M17.29 1.16666H10.71L9.95517 4.94316C9.33019 5.22323 8.73591 5.56729 8.18183 5.96983L4.53017 4.73433L1.24133 10.4323L4.13583 12.9757C4.06593 13.6568 4.06593 14.3432 4.13583 15.0243L1.24133 17.5677L4.53133 23.2657L8.18183 22.0313C8.7325 22.4303 9.32517 22.7757 9.95517 23.0568L10.71 26.8333H17.29L18.0448 23.0568C18.6698 22.7768 19.2641 22.4327 19.8182 22.0302L23.4698 23.2657L26.7598 17.5677L23.8642 15.0243C23.9341 14.3432 23.9341 13.6568 23.8642 12.9757L26.7587 10.4323L23.4687 4.73433L19.8193 5.96866C19.2652 5.56653 18.6709 5.22286 18.046 4.94316L17.29 1.16666ZM14 18.6667C12.7623 18.6667 11.5753 18.175 10.7002 17.2998C9.825 16.4247 9.33333 15.2377 9.33333 14C9.33333 12.7623 9.825 11.5753 10.7002 10.7002C11.5753 9.825 12.7623 9.33333 14 9.33333C15.2377 9.33333 16.4247 9.825 17.2998 10.7002C18.175 11.5753 18.6667 12.7623 18.6667 14C18.6667 15.2377 18.175 16.4247 17.2998 17.2998C16.4247 18.175 15.2377 18.6667 14 18.6667Z" fill="#C6C6C6"/>
</svg>
