<svg width="28" height="24" viewBox="0 0 28 24" fill="none" xmlns="http://www.w3.org/2000/svg">
<path d="M17.7607 13.9284V15.017C17.7607 15.7318 17.6331 16.4396 17.3851 17.1C17.1372 17.7604 16.7738 18.3604 16.3157 18.8658C15.8576 19.3713 15.3138 19.7722 14.7152 20.0457C14.1167 20.3193 13.4752 20.4601 12.8273 20.4601H9.6108C9.59558 21.0554 9.4331 21.6348 9.14094 22.1356C8.84877 22.6364 8.43805 23.0395 7.9532 23.3013C7.54883 23.5242 7.10284 23.6398 6.6508 23.6388C5.98211 23.6432 5.33177 23.3976 4.80574 22.9421L1.1452 19.7742C0.788689 19.469 0.50016 19.0778 0.301674 18.6306C0.103187 18.1835 0 17.6921 0 17.1942C0 16.6963 0.103187 16.205 0.301674 15.7578C0.50016 15.3107 0.788689 14.9195 1.1452 14.6142L4.80574 11.4464C5.24677 11.058 5.77923 10.8168 6.34037 10.7513C6.90151 10.6857 7.46795 10.7985 7.97294 11.0763C8.64538 11.4311 9.16325 12.0651 9.41347 12.8398H16.7444C16.8764 12.8354 17.0079 12.8604 17.1311 12.9131C17.2542 12.9658 17.3665 13.0453 17.4613 13.1469C17.5561 13.2484 17.6314 13.3699 17.6828 13.5041C17.7343 13.6384 17.7607 13.7827 17.7607 13.9284Z" fill="#C6C6C6"/>
<path d="M27.3708 6.46056C27.3709 6.95841 27.2678 7.44969 27.0694 7.89685C26.871 8.34401 26.5826 8.73521 26.2262 9.04056L22.5657 12.2084C22.0323 12.6657 21.3764 12.9146 20.7009 12.916C20.2489 12.917 19.8029 12.8014 19.3985 12.5785C18.7261 12.2237 18.2082 11.5897 17.958 10.815H10.5974C10.3358 10.815 10.0848 10.7003 9.89977 10.4961C9.71473 10.292 9.61078 10.0151 9.61078 9.72638V8.63777C9.61078 7.19419 10.1305 5.80973 11.0557 4.78897C11.9809 3.7682 13.2357 3.19474 14.5441 3.19474H17.7606C17.7727 2.58615 17.9386 1.99338 18.2397 1.48332C18.5409 0.973256 18.9652 0.566205 19.4649 0.3081C19.9646 0.0499955 20.5197 -0.0488897 21.0676 0.0226042C21.6155 0.094098 22.1344 0.333125 22.5657 0.712711L26.2262 3.88056C26.5826 4.18591 26.871 4.57711 27.0694 5.02427C27.2678 5.47143 27.3709 5.96271 27.3708 6.46056Z" fill="#C6C6C6"/>
</svg>
