<svg width="20" height="27" viewBox="0 0 20 27" fill="none" xmlns="http://www.w3.org/2000/svg">
<path d="M9.86665 13.0633C13.1362 13.0633 15.7867 10.139 15.7867 6.53165C15.7867 2.92432 13.1362 0 9.86665 0C6.59713 0 3.94666 2.92432 3.94666 6.53165C3.94666 10.139 6.59713 13.0633 9.86665 13.0633Z" fill="#C6C6C6"/>
<path d="M12.8267 15.1643H6.90667C5.0749 15.1643 3.31817 15.9672 2.02292 17.3962C0.727665 18.8253 0 20.7635 0 22.7846C0 23.6507 0.311856 24.4814 0.866964 25.0938C1.42207 25.7063 2.17496 26.0504 2.96 26.0504H16.7733C17.5584 26.0504 18.3113 25.7063 18.8664 25.0938C19.4215 24.4814 19.7333 23.6507 19.7333 22.7846C19.7333 20.7635 19.0057 18.8253 17.7104 17.3962C16.4152 15.9672 14.6584 15.1643 12.8267 15.1643Z" fill="#C6C6C6"/>
</svg>
