<svg width="31" height="31" viewBox="0 0 31 31" fill="none" xmlns="http://www.w3.org/2000/svg">
<path fill-rule="evenodd" clip-rule="evenodd" d="M0 15.0409C0 6.73383 6.73377 0 15.0408 0C23.3478 0 30.0816 6.73383 30.0816 15.0409C30.0816 23.3481 23.3478 30.0819 15.0408 30.0819C6.73377 30.0819 0 23.3481 0 15.0409ZM3.00816 15.0409C3.00767 13.0496 3.50142 11.0892 4.44514 9.33561C5.38885 7.58204 6.75303 6.0901 8.41533 4.9936C6.94885 7.66336 6.01632 11.198 6.01632 15.0409C6.01632 18.9366 7.02857 22.5043 8.54769 25.1725C6.8489 24.0837 5.45122 22.5851 4.48321 20.8146C3.51521 19.0442 3.00797 17.0588 3.00816 15.0409ZM27.0734 15.0409C27.0734 19.2374 24.9226 22.9344 21.6663 25.0883C23.1328 22.4185 24.0653 18.8839 24.0653 15.0409C24.0653 11.198 23.1328 7.66186 21.6663 4.9936C23.3286 6.0901 24.6927 7.58204 25.6365 9.33561C26.5802 11.0892 27.0739 13.0496 27.0734 15.0409ZM13.5367 26.4886C12.8148 25.9893 12.0146 25.1349 11.2535 23.8414C9.95701 21.6409 9.02448 18.5259 9.02448 15.0409C9.02448 11.5394 9.90738 8.42293 11.1738 6.22695C11.9424 4.89282 12.7696 4.02345 13.5367 3.53161V26.4886ZM16.5449 26.5488V3.53161C17.312 4.02345 18.1392 4.89282 18.9078 6.22695C20.1742 8.42293 21.0571 11.5394 21.0571 15.0409C21.0571 18.5425 20.1742 21.659 18.9078 23.8549C18.1392 25.1891 17.312 26.0584 16.5449 26.5488Z" fill="#7B4CC3"/>
</svg>
